<?xml version="1.0" encoding="UTF-8"?>
<svg width="288px" height="264px" viewBox="0 0 288 264" version="1.1" xmlns="http://www.w3.org/2000/svg" xmlns:xlink="http://www.w3.org/1999/xlink">
    <!-- Generator: Sketch 46.2 (44496) - http://www.bohemiancoding.com/sketch -->
    <title>Group 2</title>
    <desc>Created with Sketch.</desc>
    <defs></defs>
    <g id="logo" stroke="none" stroke-width="1" fill="none" fill-rule="evenodd">
        <g id="Artboard-4" transform="translate(-113.000000, -117.000000)" fill="#FFFFFF">
            <g id="Group-2" transform="translate(90.000000, 117.000000)">
                <text id="TECHNICAL-SERVICES" font-family="HelveticaNeue-Medium, Helvetica Neue" font-size="20" font-weight="400" letter-spacing="1.20000005">
                    <tspan x="49.6899996" y="263">TECHNICAL SERVICE</tspan>
                    <tspan x="272.35" y="263">S</tspan>
                </text>
                <text id="GannettPeak" font-family="HelveticaNeue-Light, Helvetica Neue" font-size="48" font-weight="300" letter-spacing="-4">
                    <tspan x="49.635826" y="234">Gannett</tspan>
                    <tspan x="186.995826" y="234" letter-spacing="-4.173913">Peak</tspan>
                </text>
                <g id="Group" transform="translate(23.000000, 0.000000)">
                    <path d="M69.9619241,70.1918613 L25.1546072,147.401271 L6.77365892,147.401271 L71.1234187,41.5403583 L79.5904923,53.6004623 L140.553423,158.906427 L140.553423,187.601618 L69.9619241,70.1918613 Z M140.553423,158.949255 L189.245063,77.9353684 L198.418851,92.2319366 L140.553423,187.542391 L140.553423,158.949255 Z M6.77365892,147.401271 L94.8312249,147.401271 L87.0465721,162.141399 L0,160.962188 L6.77365892,147.401271 Z" id="Combined-Shape"></path>
                    <path d="M268.595417,169.047161 L287.880504,167.444621 L169.318464,0 L108.497677,89.2668343 L118.891103,103.128144 L171.028293,28.0321222 L171.034888,28.1402427 L258.723253,155.801121 L183.176365,155.801121 L191.645082,167.444621 L267.851939,169.091094 L267.863536,169.107978 L268.022401,169.094777 L268.63342,169.107978 L268.595417,169.047161 Z" id="Combined-Shape"></path>
                </g>
            </g>
        </g>
    </g>
</svg>